<svg id="Layer_1" data-name="Layer 1" xmlns="http://www.w3.org/2000/svg" viewBox="0 0 115 115"><defs><style>.cls-1{fill:#fff;opacity:0.6;}</style></defs><title>b-shoot</title><path class="cls-1" d="M57.5,0A57.5,57.5,0,1,0,115,57.5,57.5,57.5,0,0,0,57.5,0ZM89.75,63l0,.16-17.51-1.3-.06.12,10,15.59-.11.1L67.72,66l-.15.06L68,74.63l-.14.07c-1.85-2-3.7-4-5.56-6l-.14,0c-1.91,7.46-3.81,14.93-5.75,22.53a3.23,3.23,0,0,1-.23-.44c-.82-2.9-1.63-5.8-2.45-8.69Q52.27,77,50.8,71.87c-.3-1-.3-1-1.39-.62-3,1.13-6,2.23-9,3.35L28.83,78.91l-8.92,3.31c-.12,0-.25.06-.38.09l-.06-.11L41.56,62.32,14.64,53.49v-.17c4.3-.63,8.62-1.18,12.92-1.77s8.62-1.17,12.93-1.76l.05-.15q-5-5-10-10l.08-.11,1.69.31L43.16,42c.61.13.63.12.67-.48q.42-5.91.83-11.82c0-.14,0-.28.06-.56L57.25,39c3.42-6.26,6.81-12.43,10.19-18.61l.13,0c.06.46.13.92.18,1.39Q68.4,27.7,69,33.58c.23,2.1.48,4.19.7,6.29,0,.38.19.49.57.46q4-.4,8.11-.78c1.74-.17,3.48-.32,5.23-.48a3,3,0,0,1,.42,0c-2.37,2.66-4.66,5.25-6.94,7.83l0,.14,23.17-1.72,0,.16L77,52Z"/></svg>